REM DIRINDEX 1\6,1\2\7,1\2\8,1\2\9,1\3\10,1\3\11,1\4\12,1\4\13,1\4\14,1\5\15,1\5\16,1\5\17
REM DIRNAME cjc040,folder01,folder02,folder03,folder04,folder05,folder06,folder07,folder08,folder09,folder10,folder11,folder12,folder13,folder14,folder15,folder16
TITLE ""
FILE "P2Q_t_0215-0232.mp3" MP3
  TRACK 01 AUDIO
    TITLE "10:cjc040_2079"
    INDEX 01 00:00:00
  TRACK 02 AUDIO
    TITLE "0:"
    INDEX 01 00:01:01
  TRACK 03 AUDIO
    TITLE "11:cjc040_2080"
    INDEX 01 00:01:62
  TRACK 04 AUDIO
    TITLE "0:"
    INDEX 01 00:04:05
  TRACK 05 AUDIO
    TITLE "10:cjc040_2081"
    INDEX 01 00:04:60
  TRACK 06 AUDIO
    TITLE "0:"
    INDEX 01 00:06:04
  TRACK 07 AUDIO
    TITLE "11:cjc040_2082"
    INDEX 01 00:06:59
  TRACK 08 AUDIO
    TITLE "0:"
    INDEX 01 00:10:04
  TRACK 09 AUDIO
    TITLE "10:cjc040_2083"
    INDEX 01 00:10:63
  TRACK 10 AUDIO
    TITLE "0:"
    INDEX 01 00:12:07
  TRACK 11 AUDIO
    TITLE "11:cjc040_2084"
    INDEX 01 00:12:63
  TRACK 12 AUDIO
    TITLE "0:"
    INDEX 01 00:15:13
  TRACK 13 AUDIO
    TITLE "10:cjc040_2085"
    INDEX 01 00:15:70
  TRACK 14 AUDIO
    TITLE "0:"
    INDEX 01 00:17:04
  TRACK 15 AUDIO
    TITLE "11:cjc040_2086"
    INDEX 01 00:17:61
  TRACK 16 AUDIO
    TITLE "0:"
    INDEX 01 00:20:14
  TRACK 17 AUDIO
    TITLE "10:cjc040_2087"
    INDEX 01 00:20:71
  TRACK 18 AUDIO
    TITLE "0:"
    INDEX 01 00:22:19
  TRACK 19 AUDIO
    TITLE "11:cjc040_2088"
    INDEX 01 00:23:01
  TRACK 20 AUDIO
    TITLE "0:"
    INDEX 01 00:24:02
  TRACK 21 AUDIO
    TITLE "10:cjc040_2089"
    INDEX 01 00:24:57
  TRACK 22 AUDIO
    TITLE "0:"
    INDEX 01 00:25:74
  TRACK 23 AUDIO
    TITLE "11:cjc040_2090"
    INDEX 01 00:26:52
  TRACK 24 AUDIO
    TITLE "0:"
    INDEX 01 00:27:59
  TRACK 25 AUDIO
    TITLE "10:cjc040_2091"
    INDEX 01 00:28:41
  TRACK 26 AUDIO
    TITLE "0:"
    INDEX 01 00:29:52
  TRACK 27 AUDIO
    TITLE "11:cjc040_2092"
    INDEX 01 00:30:34
  TRACK 28 AUDIO
    TITLE "0:"
    INDEX 01 00:33:62
  TRACK 29 AUDIO
    TITLE "10:cjc040_2093"
    INDEX 01 00:34:38
  TRACK 30 AUDIO
    TITLE "0:"
    INDEX 01 00:35:68
  TRACK 31 AUDIO
    TITLE "11:cjc040_2094"
    INDEX 01 00:36:48
  TRACK 32 AUDIO
    TITLE "0:"
    INDEX 01 00:37:61
  TRACK 33 AUDIO
    TITLE "10:cjc040_2095"
    INDEX 01 00:38:43
  TRACK 34 AUDIO
    TITLE "0:"
    INDEX 01 00:39:49
  TRACK 35 AUDIO
    TITLE "11:cjc040_2096"
    INDEX 01 00:40:23
  TRACK 36 AUDIO
    TITLE "0:"
    INDEX 01 00:41:26
  TRACK 37 AUDIO
    TITLE "10:cjc040_2097"
    INDEX 01 00:41:73
  TRACK 38 AUDIO
    TITLE "0:"
    INDEX 01 00:43:39
  TRACK 39 AUDIO
    TITLE "11:cjc040_2098"
    INDEX 01 00:44:09
  TRACK 40 AUDIO
    TITLE "0:"
    INDEX 01 00:46:35
  TRACK 41 AUDIO
    TITLE "10:cjc040_2099"
    INDEX 01 00:47:11
  TRACK 42 AUDIO
    TITLE "0:"
    INDEX 01 00:48:16
  TRACK 43 AUDIO
    TITLE "11:cjc040_2100"
    INDEX 01 00:49:00
  TRACK 44 AUDIO
    TITLE "0:"
    INDEX 01 00:51:07
  TRACK 45 AUDIO
    TITLE "10:cjc040_2101"
    INDEX 01 00:51:65
  TRACK 46 AUDIO
    TITLE "0:"
    INDEX 01 00:53:35
  TRACK 47 AUDIO
    TITLE "11:cjc040_2102"
    INDEX 01 00:54:13
  TRACK 48 AUDIO
    TITLE "0:"
    INDEX 01 00:55:26
  TRACK 49 AUDIO
    TITLE "10:cjc040_2103"
    INDEX 01 00:56:06
  TRACK 50 AUDIO
    TITLE "0:"
    INDEX 01 00:57:19
  TRACK 51 AUDIO
    TITLE "11:cjc040_2104"
    INDEX 01 00:58:07
  TRACK 52 AUDIO
    TITLE "0:"
    INDEX 01 01:00:31
  TRACK 53 AUDIO
    TITLE "10:cjc040_2105"
    INDEX 01 01:01:09
  TRACK 54 AUDIO
    TITLE "0:"
    INDEX 01 01:02:32
  TRACK 55 AUDIO
    TITLE "11:cjc040_2106"
    INDEX 01 01:03:12
  TRACK 56 AUDIO
    TITLE "0:"
    INDEX 01 01:04:29
  TRACK 57 AUDIO
    TITLE "10:cjc040_2107"
    INDEX 01 01:05:07
  TRACK 58 AUDIO
    TITLE "0:"
    INDEX 01 01:06:26
  TRACK 59 AUDIO
    TITLE "11:cjc040_2108"
    INDEX 01 01:07:10
  TRACK 60 AUDIO
    TITLE "0:"
    INDEX 01 01:08:19
  TRACK 61 AUDIO
    TITLE "10:cjc040_2109"
    INDEX 01 01:09:03
  TRACK 62 AUDIO
    TITLE "0:"
    INDEX 01 01:10:10
  TRACK 63 AUDIO
    TITLE "11:cjc040_2110"
    INDEX 01 01:10:67
  TRACK 64 AUDIO
    TITLE "0:"
    INDEX 01 01:13:02
  TRACK 65 AUDIO
    TITLE "10:cjc040_2111"
    INDEX 01 01:13:51
  TRACK 66 AUDIO
    TITLE "0:"
    INDEX 01 01:14:61
  TRACK 67 AUDIO
    TITLE "11:cjc040_2112"
    INDEX 01 01:15:40
  TRACK 68 AUDIO
    TITLE "0:"
    INDEX 01 01:16:34
  TRACK 69 AUDIO
    TITLE "10:cjc040_2113"
    INDEX 01 01:17:14
  TRACK 70 AUDIO
    TITLE "0:"
    INDEX 01 01:18:31
  TRACK 71 AUDIO
    TITLE "11:cjc040_2114"
    INDEX 01 01:19:15
  TRACK 72 AUDIO
    TITLE "0:"
    INDEX 01 01:21:04
